<svg width="331" height="331" viewBox="0 0 331 331" fill="none" xmlns="http://www.w3.org/2000/svg">
<path d="M120.71 270.22H151.01V300.03H181.31V269.72H240.91V210.12H210.61V180.31H240.42V150.01H300.27V120.21H330.33V90.41H301.52V60.6H270.22V0.5H240.91V30.3H121.2V90.41H90.41V120.71H61.1V90.41H31.3V119.71H0.5V209.62H120.71V270.22ZM120.71 270.22V300.03H90.41M120.71 270.22L90.41 269.72V300.03M90.41 300.03V329.83H31.3V301.02H0.5V239.92H61.1V300.52L90.41 300.03ZM270.72 121.13H239.92V60.53H270.22L270.72 121.13ZM150.51 59.61H180.97V89.91H150.51V59.61Z" stroke="white" stroke-miterlimit="10"/>
</svg>
